# xmcd CD database file
#
# Track frame offsets:
#	150
#	6179
#	26576
#	43231
#	63459
#	82076
#	106184
#	119680
#	144162
#	166416
#	187670
#
# Disc length: 3041 seconds
#
# Revision: 0
# Processed by: cddbd v1.5.2PL0 Copyright (c) Steve Scherf et al.
# Submitted via: CDex 1.70beta2
#
DISCID=8d0bdf0b
DTITLE=UI-70 - the Gift
DYEAR=2009
DGENRE=東方アレンジ
TTITLE0=ほおずきみたいに紅い魂
TTITLE1=懐かしき東方の血 ～ Old Blood
TTITLE2=霊知の太陽信仰 ～ Nuclear Fusion
TTITLE3=幻視の夜 ～ Ghostly Eyes
TTITLE4=UNオーエンは彼女なのか
TTITLE5=Reincarnation
TTITLE6=妖怪の山 ～ Mysterious Mountain
TTITLE7=クリスタライズシルバー
TTITLE8=信仰は儚き人間の為に
TTITLE9=幽霊楽団 ～ Phantom Ensemble
TTITLE10=上海紅茶館 ～ Chinese Tea
EXTD=YEAR: 2009
EXTT0=
EXTT1=
EXTT2=
EXTT3=
EXTT4=
EXTT5=
EXTT6=
EXTT7=
EXTT8=
EXTT9=
EXTT10=
PLAYORDER=
